# xmcd
#
# Track frame offsets: 
#        150
#        19004
#        34048
#        49499
#        79767
#        91399
#        106974
#        121041
#        137794
#        156251
#        168203
#        199967
#        218619
#        238865
#        262991
#        286543
#        312812
#
# Disc length: 4440 seconds
#
# Revision: 1
# Processed by: cddbd v1.5.1PL0 Copyright (c) Steve Scherf et al.
# Submitted via: ExactAudioCopy v0.95a5
#
DISCID=df115611
DTITLE=Various Artist - Pink.Champagne.[A]
DYEAR=2003
DGENRE=Jazz
TTITLE0=Charlie Hunter and Norah Jones - More Than This
TTITLE1=Lisa Ono - Tea For Two
TTITLE2=Edith Piaf - La Vie En Rose
TTITLE3=Ella Fitzgerald - Medley
TTITLE4=Julie London - Fly Me To The Moon
TTITLE5=Nina Simone - Wild Is The Wind
TTITLE6=Eva Cassidy - Yesterday
TTITLE7=Nancy Wilson - People
TTITLE8=Sarah Vaughan - In A Sentimental Mood
TTITLE9=Cilla Black - Alfie
TTITLE10=Dianne Reeves - Bothe Side Now
TTITLE11=Cassandra Wilson - Time After Time
TTITLE12=Patricia Barber - A Taste Of Honey
TTITLE13=Angelita Li and Hans Ulrik - Close To You
TTITLE14=Miriam Aida and Fredrik Kronkvist - Sunny
TTITLE15=Billie Holliday woth the Paul Whiteman Orchestra - Trav'lin' 
TTITLE15=Light
TTITLE16=DATA
EXTD=YEAR: 2003
EXTT0=
EXTT1=
EXTT2=
EXTT3=
EXTT4=
EXTT5=
EXTT6=
EXTT7=
EXTT8=
EXTT9=
EXTT10=
EXTT11=
EXTT12=
EXTT13=
EXTT14=
EXTT15=
EXTT16=
PLAYORDER=
